<svg xmlns="http://www.w3.org/2000/svg" viewBox="0 0 800 560" fill="none">
  <defs>
    <linearGradient id="bg3" x1="0" y1="0" x2="800" y2="560" gradientUnits="userSpaceOnUse">
      <stop stop-color="#111827"/>
      <stop offset="1" stop-color="#0F172A"/>
    </linearGradient>
    <linearGradient id="shield" x1="240" y1="120" x2="560" y2="440" gradientUnits="userSpaceOnUse">
      <stop stop-color="#38BDF8"/>
      <stop offset="0.5" stop-color="#6366F1"/>
      <stop offset="1" stop-color="#8B5CF6"/>
    </linearGradient>
  </defs>
  <rect width="800" height="560" rx="32" fill="url(#bg3)"/>
  <circle cx="400" cy="280" r="210" fill="#1E293B" opacity="0.55"/>
  <path d="M400 120l150 58v102c0 101-59 150-150 188-91-38-150-87-150-188V178l150-58Z" fill="url(#shield)" opacity="0.95"/>
  <path d="M400 170c48 18 92 26 122 31v69c0 63-31 100-122 140-91-40-122-77-122-140v-69c30-5 74-13 122-31Z" fill="#0F172A" opacity="0.9"/>
  <path d="M365 294l27 27 49-57" stroke="#DCFCE7" stroke-width="16" stroke-linecap="round" stroke-linejoin="round"/>
  <circle cx="400" cy="280" r="176" stroke="#38BDF8" stroke-opacity="0.18" stroke-width="14"/>
  <circle cx="400" cy="280" r="230" stroke="#8B5CF6" stroke-opacity="0.08" stroke-width="18" stroke-dasharray="10 14"/>
  <path d="M212 404c58-18 98-40 126-73" stroke="#60A5FA" stroke-width="10" stroke-linecap="round" opacity="0.7"/>
  <path d="M588 156c-37 16-67 39-88 68" stroke="#C084FC" stroke-width="10" stroke-linecap="round" opacity="0.7"/>
  <circle cx="216" cy="404" r="12" fill="#38BDF8"/>
  <circle cx="586" cy="156" r="12" fill="#A855F7"/>
</svg>